{
  "accessors": [
    {
      "bufferView": 1,
      "componentType": 5126,
      "count": 65532,
      "max": [
        0.5396977066993713,
        0.18412232398986816,
        0.9865654110908508
      ],
      "min": [
        -0.5396977066993713,
        -0.18870456516742706,
        -0.972696840763092
      ],
      "type": "VEC3"
    },
    {
      "bufferView": 1,
      "byteOffset": 786384,
      "componentType": 5126,
      "count": 65532,
      "max": [
        0.999998152256012,
        0.9999935626983643,
        0.9985263347625732
      ],
      "min": [
        -0.9999982714653015,
        -0.9999944567680359,
        -0.999947190284729
      ],
      "type": "VEC3"
    },
    {
      "bufferView": 0,
      "componentType": 5125,
      "count": 342078,
      "type": "SCALAR"
    },
    {
      "bufferView": 1,
      "byteOffset": 1572768,
      "componentType": 5126,
      "count": 65532,
      "max": [
        0.5395547151565552,
        0.18688525259494781,
        0.9873673915863037
      ],
      "min": [
        -0.5337428450584412,
        -0.18797670304775238,
        -0.9668559432029724
      ],
      "type": "VEC3"
    },
    {
      "bufferView": 1,
      "byteOffset": 2359152,
      "componentType": 5126,
      "count": 65532,
      "max": [
        0.999943733215332,
        0.9999995231628418,
        0.9999912977218628
      ],
      "min": [
        -0.9999437928199768,
        -0.9999653697013855,
        -0.9999145269393921
      ],
      "type": "VEC3"
    },
    {
      "bufferView": 0,
      "byteOffset": 1368312,
      "componentType": 5125,
      "count": 339000,
      "type": "SCALAR"
    },
    {
      "bufferView": 1,
      "byteOffset": 3145536,
      "componentType": 5126,
      "count": 65372,
      "max": [
        0.5395585894584656,
        0.1868852823972702,
        0.9873673915863037
      ],
      "min": [
        -0.5395585298538208,
        -0.18856583535671234,
        -0.9724673628807068
      ],
      "type": "VEC3"
    },
    {
      "bufferView": 1,
      "byteOffset": 3930000,
      "componentType": 5126,
      "count": 65372,
      "max": [
        0.9999887347221375,
        0.9999997615814209,
        0.9999912977218628
      ],
      "min": [
        -0.9999886751174927,
        -0.9999976754188538,
        -0.9999921917915344
      ],
      "type": "VEC3"
    },
    {
      "bufferView": 0,
      "byteOffset": 2724312,
      "componentType": 5125,
      "count": 281784,
      "type": "SCALAR"
    }
  ],
  "asset": {
    "extras": {
      "author": "C.J..Goldman (https://sketchfab.com/C.J..Goldman)",
      "license": "CC-BY-4.0 (http://creativecommons.org/licenses/by/4.0/)",
      "source": "https://sketchfab.com/3d-models/male-anatomy-figure-e39449c8c59346788834b94706faf4bb",
      "title": "Male anatomy figure"
    },
    "generator": "Sketchfab-13.49.0",
    "version": "2.0"
  },
  "bufferViews": [
    {
      "buffer": 0,
      "byteLength": 3851448,
      "name": "floatBufferViews",
      "target": 34963
    },
    {
      "buffer": 0,
      "byteLength": 4714464,
      "byteOffset": 3851448,
      "byteStride": 12,
      "name": "floatBufferViews",
      "target": 34962
    }
  ],
  "buffers": [
    {
      "byteLength": 8565912,
      "uri": "scene.bin"
    }
  ],
  "materials": [
    {
      "doubleSided": true,
      "name": "material_0",
      "pbrMetallicRoughness": {
        "baseColorFactor": [
          0.5036691047413413,
          0.605342001017097,
          0.5964535153548645,
          1.0
        ],
        "metallicFactor": 0.5530928143259786,
        "roughnessFactor": 0.6
      }
    }
  ],
  "meshes": [
    {
      "name": "Object_0",
      "primitives": [
        {
          "attributes": {
            "NORMAL": 1,
            "POSITION": 0
          },
          "indices": 2,
          "material": 0,
          "mode": 4
        }
      ]
    },
    {
      "name": "Object_1",
      "primitives": [
        {
          "attributes": {
            "NORMAL": 4,
            "POSITION": 3
          },
          "indices": 5,
          "material": 0,
          "mode": 4
        }
      ]
    },
    {
      "name": "Object_2",
      "primitives": [
        {
          "attributes": {
            "NORMAL": 7,
            "POSITION": 6
          },
          "indices": 8,
          "material": 0,
          "mode": 4
        }
      ]
    }
  ],
  "nodes": [
    {
      "children": [
        1
      ],
      "matrix": [
        1.0,
        0.0,
        0.0,
        0.0,
        0.0,
        2.220446049250313e-16,
        -1.0,
        0.0,
        0.0,
        1.0,
        2.220446049250313e-16,
        0.0,
        0.0,
        0.0,
        0.0,
        1.0
      ],
      "name": "Sketchfab_model"
    },
    {
      "children": [
        2,
        3,
        4
      ],
      "name": "Male muscular decimated.obj.cleaner.materialmerger.gles"
    },
    {
      "mesh": 0,
      "name": "Object_2"
    },
    {
      "mesh": 1,
      "name": "Object_3"
    },
    {
      "mesh": 2,
      "name": "Object_4"
    }
  ],
  "scene": 0,
  "scenes": [
    {
      "name": "Sketchfab_Scene",
      "nodes": [
        0
      ]
    }
  ]
}
