{
  "accessors": [
    {
      "bufferView": 2,
      "componentType": 5126,
      "count": 6740,
      "max": [
        0.42502057552337646,
        0.03403332829475403,
        0.03285330533981323
      ],
      "min": [
        -0.42502057552337646,
        -0.06910014897584915,
        -0.10538189858198166
      ],
      "type": "VEC3"
    },
    {
      "bufferView": 2,
      "byteOffset": 80880,
      "componentType": 5126,
      "count": 6740,
      "max": [
        0.999760091304779,
        0.9773881435394287,
        0.9987351894378662
      ],
      "min": [
        -0.9997597932815552,
        -0.9998879432678223,
        -0.9999920129776001
      ],
      "type": "VEC3"
    },
    {
      "bufferView": 1,
      "componentType": 5126,
      "count": 6740,
      "max": [
        0.0,
        0.0
      ],
      "min": [
        0.0,
        0.0
      ],
      "type": "VEC2"
    },
    {
      "bufferView": 0,
      "componentType": 5125,
      "count": 40320,
      "type": "SCALAR"
    },
    {
      "bufferView": 2,
      "byteOffset": 161760,
      "componentType": 5126,
      "count": 65532,
      "max": [
        0.03194432333111763,
        0.026859590783715248,
        -0.0012773281196132302
      ],
      "min": [
        -0.023224137723445892,
        -0.012828696519136429,
        -0.05575017258524895
      ],
      "type": "VEC3"
    },
    {
      "bufferView": 2,
      "byteOffset": 948144,
      "componentType": 5126,
      "count": 65532,
      "max": [
        0.9999811053276062,
        0.9999529719352722,
        0.9999760389328003
      ],
      "min": [
        -0.9999854564666748,
        -0.9999594688415527,
        -0.9998806715011597
      ],
      "type": "VEC3"
    },
    {
      "bufferView": 1,
      "byteOffset": 53920,
      "componentType": 5126,
      "count": 65532,
      "max": [
        0.8308929204940796,
        0.933249831199646
      ],
      "min": [
        -0.19962793588638306,
        0.0
      ],
      "type": "VEC2"
    },
    {
      "bufferView": 0,
      "byteOffset": 161280,
      "componentType": 5125,
      "count": 367362,
      "type": "SCALAR"
    },
    {
      "bufferView": 2,
      "byteOffset": 1734528,
      "componentType": 5126,
      "count": 65532,
      "max": [
        2.637534635141492e-11,
        0.026859590783715248,
        -0.0012773281196132302
      ],
      "min": [
        -0.032690420746803284,
        -0.012855201959609985,
        -0.05675108730792999
      ],
      "type": "VEC3"
    },
    {
      "bufferView": 2,
      "byteOffset": 2520912,
      "componentType": 5126,
      "count": 65532,
      "max": [
        1.0,
        0.9999970197677612,
        0.9999760389328003
      ],
      "min": [
        -0.9999580383300781,
        -0.999969482421875,
        -0.9999387860298157
      ],
      "type": "VEC3"
    },
    {
      "bufferView": 1,
      "byteOffset": 578176,
      "componentType": 5126,
      "count": 65532,
      "max": [
        0.8308929204940796,
        0.9356481432914734
      ],
      "min": [
        -0.19962793588638306,
        0.00044290488585829735
      ],
      "type": "VEC2"
    },
    {
      "bufferView": 0,
      "byteOffset": 1630728,
      "componentType": 5125,
      "count": 367329,
      "type": "SCALAR"
    },
    {
      "bufferView": 2,
      "byteOffset": 3307296,
      "componentType": 5126,
      "count": 48693,
      "max": [
        0.032690417021512985,
        0.02625332772731781,
        -0.0013176645152270794
      ],
      "min": [
        -0.03092510998249054,
        -0.012855201959609985,
        -0.05675108730792999
      ],
      "type": "VEC3"
    },
    {
      "bufferView": 2,
      "byteOffset": 3891612,
      "componentType": 5126,
      "count": 48693,
      "max": [
        0.9999580383300781,
        0.9999970197677612,
        0.999913215637207
      ],
      "min": [
        -0.9999709129333496,
        -0.999969482421875,
        -0.9999387860298157
      ],
      "type": "VEC3"
    },
    {
      "bufferView": 1,
      "byteOffset": 1102432,
      "componentType": 5126,
      "count": 48693,
      "max": [
        0.8185652494430542,
        0.9339408278465271
      ],
      "min": [
        -0.19817829132080078,
        0.0
      ],
      "type": "VEC2"
    },
    {
      "bufferView": 0,
      "byteOffset": 3100044,
      "componentType": 5125,
      "count": 269469,
      "type": "SCALAR"
    },
    {
      "bufferView": 2,
      "byteOffset": 4475928,
      "componentType": 5126,
      "count": 65532,
      "max": [
        -0.01890319027006626,
        0.692541241645813,
        -0.08249279111623764
      ],
      "min": [
        -0.050840962678194046,
        0.662262499332428,
        -0.09746834635734558
      ],
      "type": "VEC3"
    },
    {
      "bufferView": 2,
      "byteOffset": 5262312,
      "componentType": 5126,
      "count": 65532,
      "max": [
        0.9833543300628662,
        0.9836273193359375,
        -0.16715861856937408
      ],
      "min": [
        -0.9839441776275635,
        -0.983329176902771,
        -0.9999946355819702
      ],
      "type": "VEC3"
    },
    {
      "bufferView": 0,
      "byteOffset": 4177920,
      "componentType": 5125,
      "count": 391461,
      "type": "SCALAR"
    },
    {
      "bufferView": 2,
      "byteOffset": 6048696,
      "componentType": 5126,
      "count": 65532,
      "max": [
        -0.018476558849215508,
        0.6929864287376404,
        -0.07894118130207062
      ],
      "min": [
        -0.051262106746435165,
        0.6618342399597168,
        -0.09746846556663513
      ],
      "type": "VEC3"
    },
    {
      "bufferView": 2,
      "byteOffset": 6835080,
      "componentType": 5126,
      "count": 65532,
      "max": [
        0.9981773495674133,
        0.998586893081665,
        1.0
      ],
      "min": [
        -0.9997843503952026,
        -0.9997822642326355,
        -1.0
      ],
      "type": "VEC3"
    },
    {
      "bufferView": 0,
      "byteOffset": 5743764,
      "componentType": 5125,
      "count": 388944,
      "type": "SCALAR"
    },
    {
      "bufferView": 2,
      "byteOffset": 7621464,
      "componentType": 5126,
      "count": 65532,
      "max": [
        -0.02047905884683132,
        0.6910698413848877,
        -0.08705506473779678
      ],
      "min": [
        -0.049285273998975754,
        0.6638466715812683,
        -0.09735804796218872
      ],
      "type": "VEC3"
    },
    {
      "bufferView": 2,
      "byteOffset": 8407848,
      "componentType": 5126,
      "count": 65532,
      "max": [
        0.9999960660934448,
        0.9999749064445496,
        1.0
      ],
      "min": [
        -0.9999863505363464,
        -0.999987006187439,
        -1.0
      ],
      "type": "VEC3"
    },
    {
      "bufferView": 0,
      "byteOffset": 7299540,
      "componentType": 5125,
      "count": 389910,
      "type": "SCALAR"
    },
    {
      "bufferView": 2,
      "byteOffset": 9194232,
      "componentType": 5126,
      "count": 65532,
      "max": [
        0.04244423285126686,
        0.6928494572639465,
        -0.07899286597967148
      ],
      "min": [
        -0.05111837759613991,
        0.6619699001312256,
        -0.09735804796218872
      ],
      "type": "VEC3"
    },
    {
      "bufferView": 2,
      "byteOffset": 9980616,
      "componentType": 5126,
      "count": 65532,
      "max": [
        0.9997833967208862,
        0.998586118221283,
        1.0
      ],
      "min": [
        -0.9981805086135864,
        -0.9997787475585938,
        -1.0
      ],
      "type": "VEC3"
    },
    {
      "bufferView": 0,
      "byteOffset": 8859180,
      "componentType": 5125,
      "count": 388737,
      "type": "SCALAR"
    },
    {
      "bufferView": 2,
      "byteOffset": 10767000,
      "componentType": 5126,
      "count": 65532,
      "max": [
        0.048097021877765656,
        0.6899428963661194,
        -0.0876377522945404
      ],
      "min": [
        0.021686870604753494,
        0.6651231050491333,
        -0.09735804796218872
      ],
      "type": "VEC3"
    },
    {
      "bufferView": 2,
      "byteOffset": 11553384,
      "componentType": 5126,
      "count": 65532,
      "max": [
        0.9999863505363464,
        0.999972939491272,
        1.0
      ],
      "min": [
        -0.9999960064888,
        -0.9999873638153076,
        -1.0
      ],
      "type": "VEC3"
    },
    {
      "bufferView": 0,
      "byteOffset": 10414128,
      "componentType": 5125,
      "count": 389883,
      "type": "SCALAR"
    },
    {
      "bufferView": 2,
      "byteOffset": 12339768,
      "componentType": 5126,
      "count": 65532,
      "max": [
        0.051262106746435165,
        0.6929864287376404,
        -0.07894118130207062
      ],
      "min": [
        0.018476558849215508,
        0.6618342399597168,
        -0.09746846556663513
      ],
      "type": "VEC3"
    },
    {
      "bufferView": 2,
      "byteOffset": 13126152,
      "componentType": 5126,
      "count": 65532,
      "max": [
        0.9961076378822327,
        0.9985609650611877,
        0.9793133735656738
      ],
      "min": [
        -0.9971670508384705,
        -0.9961169958114624,
        -1.0
      ],
      "type": "VEC3"
    },
    {
      "bufferView": 0,
      "byteOffset": 11973660,
      "componentType": 5125,
      "count": 380985,
      "type": "SCALAR"
    },
    {
      "bufferView": 2,
      "byteOffset": 13912536,
      "componentType": 5126,
      "count": 43165,
      "max": [
        0.05087829381227493,
        0.6925970911979675,
        -0.0822802409529686
      ],
      "min": [
        -0.04376274347305298,
        0.662224292755127,
        -0.09746846556663513
      ],
      "type": "VEC3"
    },
    {
      "bufferView": 2,
      "byteOffset": 14430516,
      "componentType": 5126,
      "count": 43165,
      "max": [
        0.9857901334762573,
        0.9862617254257202,
        -0.15971003472805023
      ],
      "min": [
        -0.9844944477081299,
        -0.985216498374939,
        -1.0
      ],
      "type": "VEC3"
    },
    {
      "bufferView": 0,
      "byteOffset": 13497600,
      "componentType": 5125,
      "count": 250560,
      "type": "SCALAR"
    },
    {
      "bufferView": 2,
      "byteOffset": 14948496,
      "componentType": 5126,
      "count": 65532,
      "max": [
        0.41827160120010376,
        0.536523163318634,
        0.1497287154197693
      ],
      "min": [
        -0.34095731377601624,
        -1.1505372524261475,
        -0.16457320749759674
      ],
      "type": "VEC3"
    },
    {
      "bufferView": 2,
      "byteOffset": 15734880,
      "componentType": 5126,
      "count": 65532,
      "max": [
        0.9999956488609314,
        0.9999985694885254,
        0.9999985694885254
      ],
      "min": [
        -0.9999957084655762,
        -0.9999420642852783,
        -1.0
      ],
      "type": "VEC3"
    },
    {
      "bufferView": 0,
      "byteOffset": 14499840,
      "componentType": 5125,
      "count": 380187,
      "type": "SCALAR"
    },
    {
      "bufferView": 2,
      "byteOffset": 16521264,
      "componentType": 5126,
      "count": 31452,
      "max": [
        0.4189927279949188,
        0.5243826508522034,
        0.13122501969337463
      ],
      "min": [
        -0.41899269819259644,
        -1.150322437286377,
        -0.16457320749759674
      ],
      "type": "VEC3"
    },
    {
      "bufferView": 2,
      "byteOffset": 16898688,
      "componentType": 5126,
      "count": 31452,
      "max": [
        0.9999566674232483,
        0.9998102784156799,
        0.9999738335609436
      ],
      "min": [
        -0.9999135136604309,
        -0.9999421238899231,
        -0.9999772906303406
      ],
      "type": "VEC3"
    },
    {
      "bufferView": 0,
      "byteOffset": 16020588,
      "componentType": 5125,
      "count": 171141,
      "type": "SCALAR"
    }
  ],
  "asset": {
    "extras": {
      "author": "Jeferson Camargo Brasil (https://sketchfab.com/sidbeyond)",
      "license": "CC-BY-4.0 (http://creativecommons.org/licenses/by/4.0/)",
      "source": "https://sketchfab.com/3d-models/base-body-female-v2-63f539acfc564b379fd70b76a52b0098",
      "title": "Base Body Female v2"
    },
    "generator": "Sketchfab-16.59.0",
    "version": "2.0"
  },
  "bufferViews": [
    {
      "buffer": 0,
      "byteLength": 16705152,
      "name": "floatBufferViews",
      "target": 34963
    },
    {
      "buffer": 0,
      "byteLength": 1491976,
      "byteOffset": 16705152,
      "byteStride": 8,
      "name": "floatBufferViews",
      "target": 34962
    },
    {
      "buffer": 0,
      "byteLength": 17276112,
      "byteOffset": 18197128,
      "byteStride": 12,
      "name": "floatBufferViews",
      "target": 34962
    }
  ],
  "buffers": [
    {
      "byteLength": 35473240,
      "uri": "scene.bin"
    }
  ],
  "materials": [
    {
      "doubleSided": true,
      "name": "Scene_-_Root",
      "pbrMetallicRoughness": {
        "metallicFactor": 0.0,
        "roughnessFactor": 0.6
      }
    }
  ],
  "meshes": [
    {
      "name": "Object_0",
      "primitives": [
        {
          "attributes": {
            "NORMAL": 1,
            "POSITION": 0,
            "TEXCOORD_0": 2
          },
          "indices": 3,
          "material": 0,
          "mode": 4
        }
      ]
    },
    {
      "name": "Object_1",
      "primitives": [
        {
          "attributes": {
            "NORMAL": 5,
            "POSITION": 4,
            "TEXCOORD_0": 6
          },
          "indices": 7,
          "material": 0,
          "mode": 4
        }
      ]
    },
    {
      "name": "Object_2",
      "primitives": [
        {
          "attributes": {
            "NORMAL": 9,
            "POSITION": 8,
            "TEXCOORD_0": 10
          },
          "indices": 11,
          "material": 0,
          "mode": 4
        }
      ]
    },
    {
      "name": "Object_3",
      "primitives": [
        {
          "attributes": {
            "NORMAL": 13,
            "POSITION": 12,
            "TEXCOORD_0": 14
          },
          "indices": 15,
          "material": 0,
          "mode": 4
        }
      ]
    },
    {
      "name": "Object_4",
      "primitives": [
        {
          "attributes": {
            "NORMAL": 17,
            "POSITION": 16
          },
          "indices": 18,
          "material": 0,
          "mode": 4
        }
      ]
    },
    {
      "name": "Object_5",
      "primitives": [
        {
          "attributes": {
            "NORMAL": 20,
            "POSITION": 19
          },
          "indices": 21,
          "material": 0,
          "mode": 4
        }
      ]
    },
    {
      "name": "Object_6",
      "primitives": [
        {
          "attributes": {
            "NORMAL": 23,
            "POSITION": 22
          },
          "indices": 24,
          "material": 0,
          "mode": 4
        }
      ]
    },
    {
      "name": "Object_7",
      "primitives": [
        {
          "attributes": {
            "NORMAL": 26,
            "POSITION": 25
          },
          "indices": 27,
          "material": 0,
          "mode": 4
        }
      ]
    },
    {
      "name": "Object_8",
      "primitives": [
        {
          "attributes": {
            "NORMAL": 29,
            "POSITION": 28
          },
          "indices": 30,
          "material": 0,
          "mode": 4
        }
      ]
    },
    {
      "name": "Object_9",
      "primitives": [
        {
          "attributes": {
            "NORMAL": 32,
            "POSITION": 31
          },
          "indices": 33,
          "material": 0,
          "mode": 4
        }
      ]
    },
    {
      "name": "Object_10",
      "primitives": [
        {
          "attributes": {
            "NORMAL": 35,
            "POSITION": 34
          },
          "indices": 36,
          "material": 0,
          "mode": 4
        }
      ]
    },
    {
      "name": "Object_11",
      "primitives": [
        {
          "attributes": {
            "NORMAL": 38,
            "POSITION": 37
          },
          "indices": 39,
          "material": 0,
          "mode": 4
        }
      ]
    },
    {
      "name": "Object_12",
      "primitives": [
        {
          "attributes": {
            "NORMAL": 41,
            "POSITION": 40
          },
          "indices": 42,
          "material": 0,
          "mode": 4
        }
      ]
    }
  ],
  "nodes": [
    {
      "children": [
        1
      ],
      "matrix": [
        1.0,
        0.0,
        0.0,
        0.0,
        0.0,
        2.220446049250313e-16,
        -1.0,
        0.0,
        0.0,
        1.0,
        2.220446049250313e-16,
        0.0,
        0.0,
        0.0,
        0.0,
        1.0
      ],
      "name": "Sketchfab_model"
    },
    {
      "children": [
        2
      ],
      "name": "root"
    },
    {
      "children": [
        3,
        5,
        9,
        17
      ],
      "matrix": [
        1.0,
        0.0,
        0.0,
        0.0,
        0.0,
        2.220446049250313e-16,
        1.0,
        0.0,
        0.0,
        -1.0,
        2.220446049250313e-16,
        0.0,
        0.0,
        0.0,
        0.0,
        1.0
      ],
      "name": "GLTF_SceneRootNode"
    },
    {
      "children": [
        4
      ],
      "matrix": [
        1.0,
        0.0,
        0.0,
        0.0,
        0.0,
        1.0,
        0.0,
        0.0,
        0.0,
        0.0,
        1.0,
        0.0,
        0.0,
        -0.25443440675735474,
        0.0,
        1.0
      ],
      "name": "unhas malha_0"
    },
    {
      "mesh": 0,
      "name": "Object_4"
    },
    {
      "children": [
        6,
        7,
        8
      ],
      "matrix": [
        1.0,
        0.0,
        0.0,
        0.0,
        0.0,
        1.0,
        0.0,
        0.0,
        0.0,
        0.0,
        1.0,
        0.0,
        0.0,
        0.3535277843475342,
        -0.048636890947818756,
        1.0
      ],
      "name": "Torus_1"
    },
    {
      "mesh": 1,
      "name": "Object_6"
    },
    {
      "mesh": 2,
      "name": "Object_7"
    },
    {
      "mesh": 3,
      "name": "Object_8"
    },
    {
      "children": [
        10,
        11,
        12,
        13,
        14,
        15,
        16
      ],
      "matrix": [
        1.0,
        0.0,
        0.0,
        0.0,
        0.0,
        1.0,
        0.0,
        0.0,
        0.0,
        0.0,
        1.0,
        0.0,
        0.0,
        -0.25443440675735474,
        0.0,
        1.0
      ],
      "name": "Esfera UV_2"
    },
    {
      "mesh": 4,
      "name": "Object_10"
    },
    {
      "mesh": 5,
      "name": "Object_11"
    },
    {
      "mesh": 6,
      "name": "Object_12"
    },
    {
      "mesh": 7,
      "name": "Object_13"
    },
    {
      "mesh": 8,
      "name": "Object_14"
    },
    {
      "mesh": 9,
      "name": "Object_15"
    },
    {
      "mesh": 10,
      "name": "Object_16"
    },
    {
      "children": [
        18,
        19
      ],
      "name": "corpo_3"
    },
    {
      "mesh": 11,
      "name": "Object_18"
    },
    {
      "mesh": 12,
      "name": "Object_19"
    }
  ],
  "scene": 0,
  "scenes": [
    {
      "name": "Sketchfab_Scene",
      "nodes": [
        0
      ]
    }
  ]
}
